Coordinates
version=1
nRows=16
nColumns=36
inDegrees=yes

Units are S.I. units (second, meters, Newtons, ...)
If the header above contains a line with 'inDegrees', this indicates whether rotational values are in degrees (yes) or radians (no).

endheader
time	pelvis_tilt	pelvis_list	pelvis_rotation	pelvis_tx	pelvis_ty	pelvis_tz	hip_flexion_r	hip_adduction_r	hip_rotation_r	knee_angle_r	knee_angle_r_beta	ankle_angle_r	subtalar_angle_r	mtp_angle_r	hip_flexion_l	hip_adduction_l	hip_rotation_l	knee_angle_l	knee_angle_l_beta	ankle_angle_l	subtalar_angle_l	mtp_angle_l	lumbar_extension	lumbar_bending	lumbar_rotation	arm_flex_r	arm_add_r	arm_rot_r	elbow_flex_r	pro_sup_r	arm_flex_l	arm_add_l	arm_rot_l	elbow_flex_l	pro_sup_l
      1.01000000	     -4.66227783	      0.28261276	      6.14618551	     -0.48491446	      1.26250905	     -0.58212301	     18.53877371	     -4.84894538	    -15.75972183	      7.61257330	      0.13286447	    -31.12199960	      7.60789774	     -6.09493100	     15.44107318	     -2.09770945	    -13.64540887	      4.14572262	      0.07235651	    -29.14112057	      2.59039597	     -6.09493100	    -15.10733280	     -0.22501651	     -2.57194062	    -57.42513014	    -35.88382804	    -87.07094853	    119.94606666	     94.52666012	    -35.22959107	    -30.52159940	    -54.49316833	    142.79262472	     90.10189640
      1.02000000	     -4.52554269	      0.46428082	      6.21977314	     -0.47305592	      1.24281616	     -0.58154888	     18.74765172	     -5.05606444	    -16.32044902	      6.73240207	      0.11750258	    -31.29926596	      9.07961208	     -6.20670820	     15.85905372	     -1.95759660	    -14.08061341	      3.28329761	      0.05730435	    -29.80421970	      4.75795430	     -6.20670820	    -15.31859141	     -0.40672539	     -2.46677131	    -60.73091961	    -32.39297365	    -86.77665382	    122.23518860	     93.57511521	    -39.70173529	    -28.58929117	    -56.10023004	    143.74930792	     89.81135324
      1.03000000	     -4.45347182	      0.60860583	      6.31202737	     -0.46145352	      1.22203618	     -0.58086246	     19.10702767	     -5.22052091	    -16.55772206	      6.14588141	      0.10726587	    -31.45761287	     10.10392962	     -6.27349530	     16.49012113	     -1.87565207	    -14.19060889	      2.81872618	      0.04919605	    -30.51472635	      6.64988584	     -6.27349530	    -15.40324870	     -0.53353514	     -2.24744853	    -63.75190988	    -28.53606236	    -85.89689407	    124.51184891	     93.07053273	    -43.87182984	    -26.44063459	    -56.97312287	    144.36923940	     89.63939813
      1.04000000	     -4.14419069	      0.74292747	      6.46354230	     -0.44990118	      1.20063217	     -0.58008281	     19.33466959	     -5.41665953	    -16.99533357	      6.06833235	      0.10591238	    -30.81259819	     11.22630766	     -6.38382318	     17.05461785	     -1.91555501	    -14.47371039	      2.91257559	      0.05083403	    -30.63964120	      9.34665947	     -6.38382318	    -15.73091179	     -0.72245025	     -2.45549481	    -65.98124626	    -25.09904407	    -83.83591841	    126.50216351	     92.28926435	    -48.22941339	    -23.51332429	    -58.05215958	    144.86737020	     89.65955478
      1.05000000	     -4.01158348	      0.81255085	      6.63514041	     -0.43883426	      1.17817835	     -0.57929096	     19.95275941	     -5.58518051	    -17.10275439	      6.52933937	      0.11395847	    -30.39779716	     11.41026794	     -6.46387119	     18.02833800	     -1.99199841	    -14.19338100	      3.62829917	      0.06332577	    -30.44312734	     10.87255110	     -6.46387119	    -15.82780185	     -0.81584665	     -2.35414014	    -68.00253547	    -21.23950240	    -81.23568757	    128.26694385	     91.57714049	    -51.90144847	    -20.55818533	    -57.79683853	    144.72256106	     89.55171682
      1.06000000	     -3.72448843	      0.79772449	      6.77120387	     -0.42826904	      1.15505120	     -0.57824347	     20.75957776	     -5.71601594	    -17.20599655	      7.95684842	      0.13887320	    -29.75781459	     10.81847116	     -6.76442799	     19.22765538	     -2.30561880	    -14.14373376	      5.41166726	      0.09445141	    -29.14356464	     12.30569254	     -6.76442799	    -16.18114902	     -0.92164742	     -2.61690556	    -69.03070788	    -17.97208198	    -77.78132096	    129.24373748	     94.21398632	    -55.42747525	    -16.69426121	    -57.74818143	    143.78182020	     94.29796780
      1.07000000	     -3.37689659	      0.77395178	      6.89464400	     -0.41835738	      1.13108794	     -0.57718954	     21.86029279	     -5.93358801	    -17.23802491	     10.31564813	      0.18004202	    -29.21731211	      9.84722094	     -7.01403406	     20.64538768	     -2.61482368	    -13.66093071	      7.94294138	      0.13863048	    -27.98126702	     12.08554541	     -7.01403406	    -16.72777930	     -0.95319368	     -2.59471527	    -69.51740905	    -14.34499400	    -74.11378386	    129.79104262	     95.69458459	    -58.01975615	    -12.91459795	    -56.37800903	    142.64712233	     95.08676073
      1.08000000	     -2.82760022	      0.75612760	      6.97930501	     -0.40887632	      1.10641990	     -0.57614748	     23.05220446	     -6.21098463	    -17.17578123	     13.35001418	      0.23300170	    -28.93847140	      8.85215892	     -7.05160477	     22.17496986	     -2.98211364	    -13.13013495	     11.28697136	      0.19699481	    -27.53480345	     10.89345650	     -7.05160477	    -17.64376578	     -0.92912359	     -2.34982648	    -69.34995928	    -10.56537778	    -70.30796207	    129.84428685	     94.60423756	    -59.67866947	     -9.23993267	    -54.43034312	    141.14046461	     93.91796340
      1.09000000	     -2.47282071	      0.66677791	      7.11091485	     -0.40036503	      1.08071969	     -0.57515305	     24.84556656	     -6.48829821	    -16.79807947	     17.35968798	      0.30298371	    -28.11269802	      7.09726877	     -7.10128475	     24.33312238	     -3.32672609	    -12.12715760	     15.66877470	      0.27347171	    -27.07515501	      8.16254886	     -7.10128475	    -18.53991232	     -0.86101834	     -2.27213678	    -68.21860472	     -7.19536116	    -66.22536116	    128.93496718	     93.94759712	    -60.43313779	     -5.41636763	    -52.71160704	    139.17008297	     92.92700605
      1.10000000	     -2.13094698	      0.60735849	      7.17122554	     -0.39289347	      1.05433264	     -0.57431388	     27.25075346	     -6.92383716	    -16.41255943	     23.57928002	      0.41153607	    -23.38855267	      4.87278640	     -7.22249630	     26.99936600	     -3.58272179	    -10.95756047	     21.99597571	      0.38390220	    -23.14369815	      4.48291367	     -7.22249630	    -19.62338806	     -0.75650710	     -1.97001434	    -66.44726978	     -4.00522113	    -62.63684878	    126.71788251	     99.37184838	    -60.10285288	     -2.09325097	    -50.91380865	    136.25317765	     95.42667479
      1.11000000	     -1.84727374	      0.52656825	      7.18292462	     -0.38616867	      1.02668732	     -0.57360984	     30.34669773	     -7.45601715	    -15.97803065	     32.21487533	      0.56225564	    -14.16673197	      2.43604659	     -7.28144119	     30.38168296	     -3.86981149	     -9.96069141	     30.80453885	      0.53764063	    -14.16326003	      0.79741826	     -7.28144119	    -20.77528430	     -0.61831022	     -1.68846904	    -64.14999782	     -1.50931478	    -58.82995015	    124.41164477	     96.20164817	    -59.07964314	      0.85138631	    -48.86530498	    133.57556284	     92.66046617
      1.12000000	     -1.43115900	      0.37976852	      7.18234680	     -0.37952189	      0.99801721	     -0.57315140	     33.63545652	     -7.88353568	    -15.40527032	     41.58556992	      0.72580512	     -4.20288194	      0.41237144	     -7.32897396	     34.08524774	     -4.22390559	     -9.02911750	     40.87147032	      0.71334173	     -3.71779019	     -2.07939548	     -7.32897396	    -22.09012867	     -0.36995527	     -1.40023486	    -61.47834737	      0.24483963	    -55.36114319	    121.39766842	     93.93515185	    -57.51423239	      3.33678232	    -46.85270809	    130.58508265	     90.58820486
      1.13000000	     -0.87077714	      0.18736277	      7.17927026	     -0.37336768	      0.96973560	     -0.57286957	     36.82593838	     -8.12123333	    -14.76259502	     50.08824062	      0.87420472	      2.56202783	     -2.36774848	     -7.37767774	     37.60486232	     -4.48361297	     -7.94843548	     50.09652652	      0.87434933	      3.80328156	     -4.94921748	     -7.37767774	    -23.65148829	     -0.01772989	     -1.09975178	    -58.15020595	      1.35189099	    -52.71446481	    116.68265545	    102.44574841	    -55.16463244	      5.21413773	    -45.22465042	    126.16929595	     97.23546205
      1.14000000	     -0.75831075	      0.04359299	      7.16707413	     -0.36864278	      0.94216896	     -0.57286542	     40.35327934	     -8.50404164	    -14.23552966	     57.48214440	      1.00325268	      6.90314574	     -4.77552868	     -7.39487878	     41.18389001	     -4.37198715	     -6.60393844	     57.60006171	      1.00531073	      8.41924516	     -7.76146173	     -7.39487878	    -24.89740728	      0.23293528	     -0.85986776	    -54.19472496	      1.81019639	    -49.79729613	    112.08678730	     99.06448928	    -52.21759858	      6.51587075	    -43.23779169	    122.45323978	     94.48115218
      1.15000000	     -1.48920273	     -0.02647672	      6.98977508	     -0.36492764	      0.91563817	     -0.57288471	     44.41512643	     -8.96983783	    -13.60191770	     63.87140899	      1.11476638	     10.70988919	     -5.53078523	     -7.40849062	     44.91675229	     -4.08560579	     -5.43104399	     63.53917790	      1.10896786	     12.41741998	     -9.14641093	     -7.40849062	    -25.28990674	      0.23599376	     -0.70006133	    -49.64326999	      1.47031915	    -46.93865933	    106.57426292	     96.94450178	    -48.70567163	      7.28125142	    -41.34469907	    118.07529422	     92.64181809
      1.16000000	     -2.04552692	      0.02601800	      6.58393900	     -0.36084675	      0.89207211	     -0.57268665	     47.65782820	     -9.12436487	    -12.64430808	     69.15354516	      1.20695705	     14.41886247	     -5.74594809	     -7.42573811	     47.59281793	     -3.86641781	     -4.52618513	     68.35456492	      1.19301222	     16.88702739	     -9.41829338	     -7.42573811	    -25.85515084	      0.01695688	     -0.48035584	    -44.49064806	      0.60527154	    -44.45451220	     99.43387327	    105.00207620	    -44.66151326	      7.38600286	    -39.74720772	    112.32249267	     99.18840583
